<svg width="21" height="21" viewBox="0 0 21 21" fill="none" xmlns="http://www.w3.org/2000/svg">
<path d="M15.2541 0C18.7533 0 20.7498 1.976 20.7498 5.48546V15.0979C20.7498 18.5868 18.7635 20.5833 15.2644 20.5833H5.65196C2.1425 20.5833 0.166504 18.5868 0.166504 15.0979V5.48546C0.166504 1.976 2.1425 0 5.65196 0H15.2541ZM10.4479 5.67071C9.97446 5.67071 9.59367 6.0515 9.59367 6.52492V9.42717H6.68113C6.45471 9.42717 6.23859 9.51979 6.07392 9.67417C5.91955 9.83883 5.82692 10.0539 5.82692 10.2814C5.82692 10.7548 6.20771 11.1356 6.68113 11.1459H9.59367V14.0584C9.59367 14.5318 9.97446 14.9126 10.4479 14.9126C10.9213 14.9126 11.3021 14.5318 11.3021 14.0584V11.1459H14.2249C14.6983 11.1356 15.0791 10.7548 15.0791 10.2814C15.0791 9.80796 14.6983 9.42717 14.2249 9.42717H11.3021V6.52492C11.3021 6.0515 10.9213 5.67071 10.4479 5.67071Z" fill="white"/>
</svg>
