<svg width="19" height="18" viewBox="0 0 19 18" fill="none" xmlns="http://www.w3.org/2000/svg">
<path fill-rule="evenodd" clip-rule="evenodd" d="M13.8011 0C16.736 0 18.9491 2.39464 18.9491 5.57015V11.6233C18.9491 13.2485 18.3745 14.7168 17.33 15.7586C16.3932 16.6919 15.1778 17.1864 13.8152 17.1864H5.13124C3.77131 17.1864 2.55681 16.6928 1.61905 15.7586C0.574642 14.7168 0 13.2485 0 11.6233V5.57015C0 2.39464 2.21308 0 5.14798 0H13.8011ZM13.8011 1.32203H5.14798C2.93138 1.32203 1.32203 3.10853 1.32203 5.57015V11.6233C1.32203 12.8951 1.75918 14.0311 2.5524 14.8217C3.23633 15.5048 4.12914 15.8644 5.13388 15.8644H13.8011C13.8029 15.8626 13.8099 15.8644 13.8152 15.8644C14.8208 15.8644 15.7128 15.5048 16.3967 14.8217C17.1908 14.0311 17.6271 12.8951 17.6271 11.6233V5.57015C17.6271 3.10853 16.0177 1.32203 13.8011 1.32203ZM15.1901 5.40164C15.4202 5.68455 15.377 6.10055 15.0941 6.33147L11.1773 9.51491C10.682 9.908 10.0897 10.1045 9.49835 10.1045C8.90872 10.1045 8.32086 9.90976 7.82906 9.5202L3.87619 6.33323C3.59152 6.10408 3.54745 5.6872 3.77572 5.4034C4.00575 5.12049 4.42175 5.07554 4.70555 5.30381L8.65489 8.48726C9.15109 8.88034 9.85001 8.88034 10.3497 8.48373L14.2594 5.30557C14.5432 5.07377 14.9592 5.11784 15.1901 5.40164Z" fill="#AFB5C3"/>
</svg>
