<svg width="26" height="25" viewBox="0 0 26 25" fill="none" xmlns="http://www.w3.org/2000/svg">
<path d="M11.8659 0C14.9691 0 17.5 2.4875 17.5 5.55V11.5375H9.86919C9.32231 11.5375 8.8899 11.9625 8.8899 12.5C8.8899 13.025 9.32231 13.4625 9.86919 13.4625H17.5V19.4375C17.5 22.5 14.9691 25 11.8405 25H5.6468C2.53089 25 0 22.5125 0 19.45V5.5625C0 2.4875 2.54361 0 5.65952 0H11.8659ZM20.6753 8.18775C21.0503 7.80025 21.6628 7.80025 22.0378 8.17525L25.6878 11.8127C25.8753 12.0002 25.9753 12.2378 25.9753 12.5002C25.9753 12.7503 25.8753 13.0002 25.6878 13.1753L22.0378 16.8127C21.8503 17.0002 21.6003 17.1003 21.3628 17.1003C21.1128 17.1003 20.8628 17.0002 20.6753 16.8127C20.3003 16.4377 20.3003 15.8252 20.6753 15.4502L22.6753 13.4627H17.5003V11.5378H22.6753L20.6753 9.55025C20.3003 9.17525 20.3003 8.56275 20.6753 8.18775Z" fill="white" fill-opacity="0.8"/>
</svg>
