<svg width="18" height="22" viewBox="0 0 18 22" fill="none" xmlns="http://www.w3.org/2000/svg">
<path fill-rule="evenodd" clip-rule="evenodd" d="M9.01259 0C11.4404 0 13.6078 1.54215 14.4031 3.83869C14.5495 4.25948 14.3256 4.719 13.9038 4.86536C13.483 5.01279 13.0235 4.78788 12.8771 4.36602C12.3078 2.72056 10.7528 1.61425 9.00936 1.61425H8.9943C6.74295 1.61425 4.90916 3.43728 4.89947 5.68648L4.89872 7.13069L13.112 7.13145C15.8068 7.13145 18 9.32468 18 12.0205V16.6351C18 19.3309 15.8068 21.5241 13.112 21.5241H4.88796C2.19216 21.5241 0 19.3309 0 16.6351V12.0205C0 9.88602 1.37427 8.06662 3.2847 7.40147L3.28522 5.70477C3.29921 2.54299 5.85619 0 8.99107 0H9.01259ZM13.112 8.7457H4.88796C3.08215 8.7457 1.61425 10.2147 1.61425 12.0205V16.6351C1.61425 18.4409 3.08215 19.9099 4.88796 19.9099H13.112C14.9168 19.9099 16.3857 18.4409 16.3857 16.6351V12.0205C16.3857 10.2147 14.9168 8.7457 13.112 8.7457ZM9.00032 12.3248C9.44586 12.3248 9.80745 12.6864 9.80745 13.132V15.5232C9.80745 15.9687 9.44586 16.3303 9.00032 16.3303C8.55479 16.3303 8.1932 15.9687 8.1932 15.5232V13.132C8.1932 12.6864 8.55479 12.3248 9.00032 12.3248Z" fill="#AFB5C3"/>
</svg>
