<svg width="27" height="27" viewBox="0 0 27 27" fill="none" xmlns="http://www.w3.org/2000/svg">
<path d="M19.8032 0C24.3945 0 26.9865 2.60415 27 7.1955V19.8045C27 24.3945 24.3945 27 19.8032 27H7.1955C2.60415 27 0 24.3945 0 19.8045V7.1955C0 2.60415 2.60415 0 7.1955 0H19.8032ZM14.175 5.5755C13.7957 5.346 13.3367 5.346 12.9735 5.5755C12.6077 5.80365 12.4065 6.2235 12.4457 6.642V20.3985C12.5145 20.979 12.9992 21.411 13.5662 21.411C14.148 21.411 14.6327 20.979 14.6867 20.3985V6.642C14.7407 6.2235 14.5395 5.80365 14.175 5.5755ZM7.8705 10.0035C7.506 9.774 7.04565 9.774 6.6825 10.0035C6.31665 10.233 6.1155 10.6502 6.156 11.07V20.3985C6.20865 20.979 6.69465 21.411 7.27515 21.411C7.857 21.411 8.34165 20.979 8.39565 20.3985V11.07C8.4375 10.6502 8.23365 10.233 7.8705 10.0035ZM20.3702 14.904C20.007 14.6745 19.548 14.6745 19.17 14.904C18.8042 15.1335 18.603 15.5372 18.657 15.9705V20.3985C18.711 20.979 19.1957 21.411 19.7775 21.411C20.3445 21.411 20.8292 20.979 20.898 20.3985V15.9705C20.9372 15.5372 20.736 15.1335 20.3702 14.904Z" fill="white" fill-opacity="0.8"/>
</svg>
