<svg width="19" height="19" viewBox="0 0 19 19" fill="none" xmlns="http://www.w3.org/2000/svg">
<path fill-rule="evenodd" clip-rule="evenodd" d="M12.0349 1.48684C12.3971 1.48684 12.6911 1.78084 12.6911 2.14309C12.6911 2.50534 12.3971 2.79934 12.0349 2.79934H5.67538C3.48088 2.79934 2.0625 4.30784 2.0625 6.64409V13.7158C2.0625 16.0827 3.44675 17.5527 5.67538 17.5527H13.2039C15.3984 17.5527 16.8168 16.0468 16.8168 13.7158V7.55671C16.8168 7.19446 17.1108 6.90046 17.473 6.90046C17.8353 6.90046 18.1293 7.19446 18.1293 7.55671V13.7158C18.1293 16.7958 16.15 18.8652 13.2039 18.8652H5.67538C2.72925 18.8652 0.75 16.7958 0.75 13.7158V6.64409C0.75 3.55971 2.72925 1.48684 5.67538 1.48684H12.0349ZM13.8859 7.46291C14.1729 7.68516 14.2254 8.09729 14.0031 8.38341L11.4394 11.6909C11.3326 11.8292 11.1751 11.9193 11.0019 11.9403C10.8269 11.9639 10.6536 11.9132 10.5154 11.8055L8.0496 9.86829L5.83498 12.7462C5.70548 12.9142 5.51123 13.0025 5.31435 13.0025C5.17435 13.0025 5.03348 12.9579 4.91448 12.8669C4.62748 12.6455 4.57323 12.2334 4.7946 11.9464L7.41348 8.54266C7.52023 8.40354 7.6786 8.31341 7.85185 8.29154C8.0286 8.26879 8.20185 8.31779 8.33923 8.42716L10.8067 10.3653L12.9654 7.58016C13.1876 7.29229 13.5989 7.23891 13.8859 7.46291ZM16.4715 0.75C17.7612 0.75 18.8095 1.79825 18.8095 3.088C18.8095 4.37775 17.7612 5.42687 16.4715 5.42687C15.1826 5.42687 14.1335 4.37775 14.1335 3.088C14.1335 1.79825 15.1826 0.75 16.4715 0.75ZM16.4715 2.0625C15.9062 2.0625 15.446 2.52187 15.446 3.088C15.446 3.65325 15.9062 4.11437 16.4715 4.11437C17.0367 4.11437 17.497 3.65325 17.497 3.088C17.497 2.52187 17.0367 2.0625 16.4715 2.0625Z" fill="#0A0E29"/>
</svg>
