<svg width="23" height="23" viewBox="0 0 23 23" fill="none" xmlns="http://www.w3.org/2000/svg">
<path d="M15.0219 2.68524C14.9775 2.96265 14.9553 3.24007 14.9553 3.51749C14.9553 6.01425 16.9749 8.03274 19.4606 8.03274C19.738 8.03274 20.0043 8.00057 20.2817 7.95618V16.9101C20.2817 20.673 18.0624 22.9035 14.2895 22.9035H6.09014C2.31615 22.9035 0.0968018 20.673 0.0968018 16.9101V8.69966C0.0968018 4.92677 2.31615 2.68524 6.09014 2.68524H15.0219ZM15.2449 9.43204C14.9442 9.39875 14.6457 9.53191 14.4671 9.77604L11.7828 13.2493L8.70786 10.8302C8.51921 10.686 8.29728 10.6294 8.07534 10.6527C7.85452 10.686 7.65478 10.8069 7.52051 10.9845L4.23699 15.2578L4.1693 15.3577C3.98065 15.7117 4.06943 16.1666 4.40233 16.4119C4.55768 16.5117 4.72413 16.5783 4.91278 16.5783C5.16911 16.5894 5.41213 16.4552 5.56748 16.2454L8.35276 12.6601L11.5153 15.0359L11.6152 15.1014C11.9703 15.29 12.4142 15.2023 12.6694 14.8683L15.8763 10.7304L15.832 10.7526C16.0095 10.5084 16.0428 10.1977 15.9207 9.9203C15.7998 9.64288 15.5323 9.45424 15.2449 9.43204ZM19.616 0.709686C21.0919 0.709686 22.2903 1.90813 22.2903 3.384C22.2903 4.85986 21.0919 6.05831 19.616 6.05831C18.1402 6.05831 16.9417 4.85986 16.9417 3.384C16.9417 1.90813 18.1402 0.709686 19.616 0.709686Z" fill="white"/>
</svg>
