<svg width="20" height="17" viewBox="0 0 20 17" fill="none" xmlns="http://www.w3.org/2000/svg">
<path fill-rule="evenodd" clip-rule="evenodd" d="M10.0026 0C14.1386 0.00299996 17.8525 2.90196 19.9385 7.7559C20.0205 7.9449 20.0205 8.1589 19.9385 8.3479C17.8535 13.2028 14.1386 16.1018 10.0026 16.1048H9.99662C5.86068 16.1018 2.14672 13.2028 0.0607492 8.3479C-0.0202497 8.1589 -0.0202497 7.9449 0.0607492 7.7559C2.14672 2.90196 5.86168 0.00299996 9.99662 0H10.0026ZM9.99963 1.49998C6.56367 1.50098 3.42971 3.94395 1.56973 8.0519C3.42971 12.1608 6.56267 14.6038 9.99963 14.6048C13.4366 14.6038 16.5695 12.1608 18.4295 8.0519C16.5695 3.94395 13.4366 1.50098 9.99963 1.49998ZM9.99933 4.14075C12.1563 4.14075 13.9113 5.89573 13.9113 8.0527C13.9113 10.2087 12.1563 11.9627 9.99933 11.9627C7.84235 11.9627 6.08837 10.2087 6.08837 8.0527C6.08837 5.89573 7.84235 4.14075 9.99933 4.14075ZM9.99933 5.64073C8.66934 5.64073 7.58836 6.72272 7.58836 8.0527C7.58836 9.38168 8.66934 10.4627 9.99933 10.4627C11.3293 10.4627 12.4113 9.38168 12.4113 8.0527C12.4113 6.72272 11.3293 5.64073 9.99933 5.64073Z" fill="#AFB5C3"/>
</svg>
